# xmcd
#
# Track frame offsets:
#	150
#	18742
#	36480
#	53984
#	70425
#	88340
#	110872
#	127904
#	144966
#	160293
#	173947
#	189196
#	202888
#	218171
#
# Disc length: 3130 seconds
#
# Revision: 1
# Processed by: cddbd v1.5.2PL0 Copyright (c) Steve Scherf et al.
# Submitted via: audiograbber 1.83.01
#
DISCID=d10c380e
DTITLE=Movetron - Jatkot
DYEAR=2016
DGENRE=Dance
TTITLE0=Movetron Feat. Poju - Nyt On Jatkot
TTITLE1=Movetron Feat. Poju - Älä Unohda Minua...
TTITLE2=Movetron - Uusi Alku
TTITLE3=Movetron - Kulje Vaan
TTITLE4=Movetron - Valkoinen Valhe (2016)
TTITLE5=Movetron - Grande Finale
TTITLE6=Movetron - Tuhkaa
TTITLE7=Movetron - Sydän Tahtoo
TTITLE8=Movetron - Lanteisiin
TTITLE9=Movetron - Sun Suudelmaan
TTITLE10=Movetron - Onko Tulevaa
TTITLE11=Movetron Feat. Vaida - Medieval Love
TTITLE12=Movetron - Under Your Thumb
TTITLE13=Movetron - Grande Finale (Slow Mix)
EXTD=TR.
EXTT0=
EXTT1=
EXTT2=
EXTT3=
EXTT4=
EXTT5=
EXTT6=
EXTT7=
EXTT8=
EXTT9=
EXTT10=
EXTT11=
EXTT12=
EXTT13=
PLAYORDER=
